<svg xmlns="http://www.w3.org/2000/svg" width="166" height="44.068" viewBox="0 0 166 44.068">
  <g id="Grupo_895" data-name="Grupo 895" transform="translate(-6144.615 -14)">
    <g id="Grupo_7" data-name="Grupo 7" transform="translate(6144.615 14)">
      <g id="Grupo_808" data-name="Grupo 808">
        <path id="Caminho_1471" data-name="Caminho 1471" d="M684.043,137.12a22.063,22.063,0,0,0-30.069,8.2,20.55,20.55,0,0,0-2.6,10.176v18.634a3.893,3.893,0,0,0,3.606,4.152l18.143,0h.35l0,0a22.036,22.036,0,0,0,10.571-41.164ZM653.76,174.133V155.492a18.124,18.124,0,0,1,2.291-8.988,19.686,19.686,0,0,1,17.014-9.879h.028a19.637,19.637,0,0,1,.027,39.275c-.135,0-.271,0-.421,0H654.985C654.219,175.886,653.76,174.992,653.76,174.133Z" transform="translate(-651.371 -134.22)" fill="#4bdec4"/>
        <path id="Caminho_1472" data-name="Caminho 1472" d="M715.973,148.22a17.222,17.222,0,0,1,17.291,17.042A17.474,17.474,0,0,1,715.972,182.8a17.713,17.713,0,0,0,16.378-10.757,17.915,17.915,0,0,0-16.378-24.825.5.5,0,0,0,0,1Z" transform="translate(-694.55 -142.977)" fill="#4bdec4"/>
        <path id="Caminho_1473" data-name="Caminho 1473" d="M717,147.221h0Z" transform="translate(-695.579 -142.977)" fill="#4bdec4"/>
        <path id="Caminho_1474" data-name="Caminho 1474" d="M682.325,186.654a.5.5,0,1,0,0-1,14.924,14.924,0,0,1-14.969-14.718,15.175,15.175,0,0,1,14.969-15.218,15.426,15.426,0,0,0-15.467,15.218A15.677,15.677,0,0,0,682.325,186.654Z" transform="translate(-661.799 -148.698)" fill="#4bdec4"/>
        <path id="Caminho_1475" data-name="Caminho 1475" d="M712.287,193.194a3.5,3.5,0,0,0,1.58-1.185,3.007,3.007,0,0,0,.548-1.8,2.454,2.454,0,0,0-.484-1.556,3.484,3.484,0,0,0-1.386-1.016,13.952,13.952,0,0,0-2.338-.733,6.773,6.773,0,0,1-1.958-.661,1.142,1.142,0,0,1-.573-1.032,1.454,1.454,0,0,1,.645-1.249,2.973,2.973,0,0,1,1.757-.46,5.293,5.293,0,0,1,3.385,1.225l.693-1.513a4.806,4.806,0,0,0-1.781-1.008,7.216,7.216,0,0,0-2.3-.363,5.642,5.642,0,0,0-2.33.452,3.658,3.658,0,0,0-1.556,1.24,3.09,3.09,0,0,0-.548,1.805,2.54,2.54,0,0,0,.983,2.16,8.279,8.279,0,0,0,3.144,1.208,7.589,7.589,0,0,1,1.991.653,1.087,1.087,0,0,1,.605.994,1.323,1.323,0,0,1-.653,1.175,3.41,3.41,0,0,1-1.846.419,6.357,6.357,0,0,1-1.991-.3,6.035,6.035,0,0,1-1.75-.927l-.709,1.516a5.689,5.689,0,0,0,1.958,1.016,8.385,8.385,0,0,0,2.475.354A6.456,6.456,0,0,0,712.287,193.194Z" transform="translate(-687.777 -166.301)" fill="#4bdec4"/>
        <path id="Caminho_1476" data-name="Caminho 1476" d="M719.051,174.465H717.26v1.814a6.043,6.043,0,0,1,1.791.045Z" transform="translate(-695.753 -161.329)" fill="#4bdec4"/>
        <path id="Caminho_1477" data-name="Caminho 1477" d="M717.26,221.444h1.792v-1.859a6.049,6.049,0,0,1-1.792.045Z" transform="translate(-695.753 -191.721)" fill="#4bdec4"/>
        <path id="Caminho_1478" data-name="Caminho 1478" d="M728.849,182.375a5.084,5.084,0,0,0-1.511-.931c-.2-.083-.41-.154-.62-.218a6.518,6.518,0,0,1,2.068,1.285Z" transform="translate(-702.124 -165.883)" fill="#4bdec4"/>
        <path id="Caminho_1479" data-name="Caminho 1479" d="M705.149,215.92a5.845,5.845,0,0,0,1.766,1,7.581,7.581,0,0,0,.772.228,6.533,6.533,0,0,1-2.412-1.5Z" transform="translate(-687.595 -189.071)" fill="#4bdec4"/>
      </g>
      <g id="Grupo_823" data-name="Grupo 823" transform="translate(48.216 5.134)">
        <path id="Caminho_16" data-name="Caminho 16" d="M805.61,183.934H817.76V204.36h-2.487V185.932h-9.662V204.36h-2.487V185.932h-4.037v-2h4.037v-3.059q0-3.547,1.651-5.1t5.726-1.548h1.182v2.038h-1.019a9.967,9.967,0,0,0-3.241.387A2.323,2.323,0,0,0,806,178.145a10.962,10.962,0,0,0-.386,3.383Zm26.337-.49q7.379,0,7.379,7.909V204.36H836.84V191.516a6.72,6.72,0,0,0-1.244-4.485A4.9,4.9,0,0,0,831.7,185.6a6.669,6.669,0,0,0-4.933,1.876,6.83,6.83,0,0,0-1.874,5.056V204.36h-2.448V189.6a43.965,43.965,0,0,0-.326-5.667h2.365l.326,3.751a6.726,6.726,0,0,1,2.813-3.16,8.5,8.5,0,0,1,4.321-1.08Z" transform="translate(-799.087 -174.231)" fill="#4bdec4"/>
        <path id="Caminho_17" data-name="Caminho 17" d="M954.318,202.453q6.768,0,6.768,7.909v13.005H958.6V210.525a7.338,7.338,0,0,0-1.1-4.5,4.181,4.181,0,0,0-3.506-1.407,5.523,5.523,0,0,0-4.424,1.876,7.562,7.562,0,0,0-1.611,5.1v11.783h-2.487V210.525a7.235,7.235,0,0,0-1.121-4.5,4.243,4.243,0,0,0-3.528-1.407,5.6,5.6,0,0,0-4.423,1.876,7.436,7.436,0,0,0-1.65,5.1v11.783H932.3v-14.76a43.964,43.964,0,0,0-.326-5.667h2.364l.326,3.669a6.5,6.5,0,0,1,2.548-3.1,7.252,7.252,0,0,1,3.933-1.061q4.933,0,6.319,4a6.416,6.416,0,0,1,2.671-2.934A8.129,8.129,0,0,1,954.318,202.453Zm28.7.49v20.425h-2.487v-3.914a6.63,6.63,0,0,1-2.711,3.119,8.338,8.338,0,0,1-4.341,1.08,8.863,8.863,0,0,1-4.79-1.284,8.424,8.424,0,0,1-3.18-3.669,14.345,14.345,0,0,1,.021-11.171,8.777,8.777,0,0,1,3.2-3.751,8.579,8.579,0,0,1,4.75-1.325,8.374,8.374,0,0,1,4.3,1.061,6.735,6.735,0,0,1,2.752,3.1v-3.671Zm-9.172,18.509a5.947,5.947,0,0,0,4.933-2.2,11.9,11.9,0,0,0,0-12.435,6.7,6.7,0,0,0-9.988.061,9.831,9.831,0,0,0-1.8,6.258,9.406,9.406,0,0,0,1.8,6.136,6.175,6.175,0,0,0,5.054,2.18Zm23.442-19a8.579,8.579,0,0,1,4.75,1.325,8.778,8.778,0,0,1,3.2,3.751,13.027,13.027,0,0,1,1.142,5.606,12.819,12.819,0,0,1-1.121,5.543,8.531,8.531,0,0,1-3.2,3.669,8.787,8.787,0,0,1-4.77,1.306,8.179,8.179,0,0,1-4.383-1.121,6.806,6.806,0,0,1-2.711-3.241v12.881h-2.446V208.609a43.975,43.975,0,0,0-.326-5.667h2.364l.326,4a6.938,6.938,0,0,1,2.752-3.323,8.159,8.159,0,0,1,4.423-1.162Zm-.326,19a6.133,6.133,0,0,0,5.015-2.181,9.413,9.413,0,0,0,1.8-6.136,9.82,9.82,0,0,0-1.8-6.258,6.7,6.7,0,0,0-9.989-.061,11.9,11.9,0,0,0,0,12.435,6,6,0,0,0,4.975,2.2Z" transform="translate(-888.6 -193.239)" fill="#33333e"/>
        <rect id="Retângulo_5" data-name="Retângulo 5" width="2.611" height="2.611" transform="translate(15.983)" fill="#4bdec4"/>
      </g>
    </g>
  </g>
</svg>
